<?xml version="1.0" standalone="no"?>
<!DOCTYPE svg PUBLIC "-//W3C//DTD SVG 20010904//EN"
 "http://www.w3.org/TR/2001/REC-SVG-20010904/DTD/svg10.dtd">
<svg version="1.0" xmlns="http://www.w3.org/2000/svg"
 width="563.000000pt" height="443.000000pt" viewBox="0 0 563.000000 443.000000"
 preserveAspectRatio="xMidYMid meet">

<g transform="translate(0.000000,443.000000) scale(0.100000,-0.100000)"
fill="#fff" stroke="none">
<path d="M3045 4230 c-196 -21 -491 -85 -660 -143 -213 -74 -455 -186 -633
-293 -117 -71 -302 -196 -334 -226 -7 -7 -38 -33 -68 -56 -61 -48 -199 -172
-270 -242 -25 -25 -30 -31 -10 -14 83 74 312 245 375 280 11 6 69 42 129 79
200 123 495 255 760 340 446 143 693 181 1128 172 206 -4 290 -9 387 -26 105
-18 267 -55 337 -77 11 -3 3 4 -16 15 -105 60 -360 139 -554 172 -137 23 -440
33 -571 19z"/>
<path d="M3150 4009 c-573 -50 -1235 -302 -1802 -685 -135 -91 -264 -199 -371
-309 -125 -128 -164 -181 -72 -97 118 106 227 188 371 280 536 342 1212 570
1842 623 202 17 533 7 687 -20 325 -57 582 -170 769 -338 116 -104 234 -288
277 -435 l19 -63 -4 80 c-6 103 -29 189 -76 292 -92 197 -230 343 -440 464
-292 169 -747 247 -1200 208z"/>
<path d="M4191 3323 c84 -89 165 -248 201 -390 33 -132 31 -350 -4 -484 -34
-125 -139 -334 -157 -313 -6 8 -148 306 -269 567 l-41 87 -235 0 -235 0 34
-67 c46 -92 65 -169 71 -288 14 -254 -109 -501 -319 -636 l-60 -39 223 0 223
0 63 56 c62 54 114 136 153 244 l13 35 13 -30 c6 -16 36 -92 65 -167 l53 -138
247 0 246 0 31 28 c120 107 219 301 257 502 18 95 21 279 5 366 -18 103 -50
196 -102 304 -46 92 -63 116 -147 200 -52 53 -117 108 -143 123 -38 22 -191
77 -216 77 -3 0 11 -17 30 -37z"/>
<path d="M989 2753 c-160 -183 -299 -541 -299 -772 0 -126 40 -294 96 -404 48
-93 172 -222 279 -290 106 -67 209 -122 199 -106 -5 8 -31 47 -57 87 -112 168
-132 245 -132 497 0 179 5 222 36 338 l10 37 199 0 c110 0 200 -4 200 -8 0 -4
-20 -68 -45 -142 -25 -74 -52 -156 -60 -182 l-14 -48 217 0 217 0 21 68 c12
37 61 177 109 312 170 482 218 615 222 628 4 9 -43 12 -215 12 l-220 0 -47
-127 c-25 -71 -53 -147 -62 -170 l-16 -43 -193 0 c-107 0 -194 3 -194 6 0 23
154 268 184 293 10 8 22 23 27 33 9 17 0 18 -210 18 l-219 0 -33 -37z"/>
<path d="M2256 2468 c-162 -469 -236 -688 -236 -698 0 -6 160 -10 423 -10 420
0 422 1 490 25 201 70 349 238 432 487 48 146 51 226 11 314 -35 76 -67 109
-141 144 -104 48 -118 50 -506 50 l-365 0 -108 -312z m648 -9 c49 -23 61 -108
31 -213 -20 -69 -49 -111 -103 -153 -55 -42 -104 -54 -200 -51 l-79 3 75 213
75 212 88 0 c48 0 99 -5 113 -11z"/>
<path d="M4656 1634 c-167 -180 -523 -418 -861 -576 -227 -107 -280 -128 -498
-200 -469 -154 -702 -192 -1167 -192 -276 0 -304 2 -440 26 -190 35 -287 67
-447 149 -148 75 -218 126 -314 225 -105 111 -159 200 -209 349 -25 75 -30 84
-30 53 0 -112 61 -314 131 -427 180 -292 514 -483 959 -548 266 -38 699 -19
970 43 425 98 929 312 1262 536 31 21 60 38 63 38 8 0 132 88 240 171 123 94
290 254 349 333 88 120 87 123 -8 20z"/>
<path d="M4379 1135 c-24 -19 -84 -67 -134 -106 -49 -40 -115 -88 -145 -107
-30 -19 -73 -47 -95 -62 -182 -124 -510 -285 -751 -370 -455 -160 -744 -213
-1164 -213 -233 0 -448 19 -597 53 -48 11 -99 22 -113 25 -58 13 54 -36 168
-75 145 -48 309 -84 460 -101 139 -15 435 -7 577 16 172 27 414 89 575 147
191 70 536 240 635 314 17 12 55 37 85 54 97 57 357 271 530 436 36 35 19 29
-31 -11z"/>
</g>
</svg>
